<svg xmlns="http://www.w3.org/2000/svg" xmlns:xlink="http://www.w3.org/1999/xlink" width="500" zoomAndPan="magnify" viewBox="0 0 375 374.999991" height="500" preserveAspectRatio="xMidYMid meet" version="1.2"><defs><clipPath id="5892a7267b"><path d="M 156 270 L 220 270 L 220 298.554688 L 156 298.554688 Z M 156 270 "/></clipPath><clipPath id="59d73f2cc5"><path d="M 116.394531 56.304688 L 258.894531 56.304688 L 258.894531 282 L 116.394531 282 Z M 116.394531 56.304688 "/></clipPath><clipPath id="5d1738dcdd"><path d="M 246 317 L 248 317 L 248 319 L 246 319 Z M 246 317 "/></clipPath><clipPath id="9e2dd0dc7c"><path d="M 232.703125 310.089844 L 250.578125 307.976562 L 252.691406 325.851562 L 234.816406 327.964844 Z M 232.703125 310.089844 "/></clipPath><clipPath id="c73323a93a"><path d="M 232.703125 310.089844 L 250.578125 307.976562 L 252.691406 325.851562 L 234.816406 327.964844 Z M 232.703125 310.089844 "/></clipPath><clipPath id="0e49a94730"><path d="M 233 309 L 252 309 L 252 327 L 233 327 Z M 233 309 "/></clipPath><clipPath id="5b89948458"><path d="M 232.703125 310.089844 L 250.578125 307.976562 L 252.691406 325.851562 L 234.816406 327.964844 Z M 232.703125 310.089844 "/></clipPath><clipPath id="e1c0ed4ded"><path d="M 232.703125 310.089844 L 250.578125 307.976562 L 252.691406 325.851562 L 234.816406 327.964844 Z M 232.703125 310.089844 "/></clipPath><clipPath id="53d553377d"><path d="M 99 328.703125 L 277 328.703125 L 277 329.957031 L 99 329.957031 Z M 99 328.703125 "/></clipPath><clipPath id="aa325375af"><path d="M 93.515625 327.804688 L 281.765625 327.804688 L 281.765625 330.804688 L 93.515625 330.804688 Z M 93.515625 327.804688 "/></clipPath></defs><g id="937e28edd0"><rect x="0" width="375" y="0" height="374.999991" style="fill:#ffffff;fill-opacity:1;stroke:none;"/><rect x="0" width="375" y="0" height="374.999991" style="fill:#ffffff;fill-opacity:1;stroke:none;"/><g clip-rule="nonzero" clip-path="url(#5892a7267b)"><path style=" stroke:none;fill-rule:nonzero;fill:#f9a72b;fill-opacity:1;" d="M 219.648438 284.496094 C 219.648438 291.996094 205.417969 298.074219 187.859375 298.074219 C 170.304688 298.074219 156.070312 291.996094 156.070312 284.496094 C 156.070312 277.003906 170.304688 270.917969 187.859375 270.917969 C 205.417969 270.917969 219.648438 277.003906 219.648438 284.496094 "/></g><path style=" stroke:none;fill-rule:nonzero;fill:#fcd24f;fill-opacity:1;" d="M 219 281.210938 C 219 288.710938 204.914062 294.789062 187.535156 294.789062 C 170.160156 294.789062 156.070312 288.710938 156.070312 281.210938 C 156.070312 273.710938 170.160156 267.632812 187.535156 267.632812 C 204.914062 267.632812 219 273.710938 219 281.210938 "/><g clip-rule="nonzero" clip-path="url(#59d73f2cc5)"><path style=" stroke:none;fill-rule:nonzero;fill:#1c794c;fill-opacity:1;" d="M 188.75 56.582031 C 188.328125 56.582031 187.914062 56.609375 187.5 56.617188 C 187.082031 56.609375 186.667969 56.582031 186.25 56.582031 C 147.65625 56.582031 116.363281 89.207031 116.363281 129.441406 C 116.363281 136.308594 119.027344 152.183594 123.027344 158.773438 L 187.5 281.210938 L 251.972656 158.773438 C 255.972656 152.183594 258.632812 136.308594 258.632812 129.441406 C 258.632812 89.207031 227.347656 56.582031 188.75 56.582031 "/></g><path style=" stroke:none;fill-rule:nonzero;fill:#ffffff;fill-opacity:1;" d="M 226.097656 121.324219 C 226.097656 142.640625 208.8125 159.917969 187.5 159.917969 C 166.183594 159.917969 148.902344 142.640625 148.902344 121.324219 C 148.902344 100.007812 166.183594 82.726562 187.5 82.726562 C 208.8125 82.726562 226.097656 100.007812 226.097656 121.324219 "/><g style="fill:#000000;fill-opacity:1;"><g transform="translate(101.761089, 325.412146)"><path style="stroke:none" d="M 11.234375 -1.03125 C 11.785156 -1.082031 12.191406 -1.148438 12.453125 -1.234375 C 12.722656 -1.328125 12.910156 -1.484375 13.015625 -1.703125 C 13.117188 -1.929688 13.171875 -2.28125 13.171875 -2.75 L 13.171875 -8.140625 L 6.78125 -8.140625 L 6.78125 -2.75 C 6.78125 -2.28125 6.832031 -1.929688 6.9375 -1.703125 C 7.050781 -1.484375 7.238281 -1.328125 7.5 -1.234375 C 7.757812 -1.148438 8.164062 -1.082031 8.71875 -1.03125 L 8.71875 0 L 0.484375 0 L 0.484375 -1.03125 C 1.046875 -1.082031 1.457031 -1.148438 1.71875 -1.234375 C 1.976562 -1.328125 2.160156 -1.484375 2.265625 -1.703125 C 2.378906 -1.929688 2.4375 -2.28125 2.4375 -2.75 L 2.4375 -14.453125 C 2.4375 -14.929688 2.378906 -15.285156 2.265625 -15.515625 C 2.160156 -15.742188 1.984375 -15.894531 1.734375 -15.96875 C 1.484375 -16.050781 1.066406 -16.117188 0.484375 -16.171875 L 0.484375 -17.203125 L 8.71875 -17.203125 L 8.71875 -16.171875 C 8.144531 -16.117188 7.734375 -16.050781 7.484375 -15.96875 C 7.234375 -15.894531 7.050781 -15.742188 6.9375 -15.515625 C 6.832031 -15.285156 6.78125 -14.929688 6.78125 -14.453125 L 6.78125 -9.8125 L 13.171875 -9.8125 L 13.171875 -14.453125 C 13.171875 -14.929688 13.117188 -15.285156 13.015625 -15.515625 C 12.910156 -15.742188 12.726562 -15.894531 12.46875 -15.96875 C 12.21875 -16.050781 11.804688 -16.117188 11.234375 -16.171875 L 11.234375 -17.203125 L 19.46875 -17.203125 L 19.46875 -16.171875 C 18.894531 -16.117188 18.476562 -16.050781 18.21875 -15.96875 C 17.96875 -15.894531 17.789062 -15.742188 17.6875 -15.515625 C 17.582031 -15.285156 17.53125 -14.929688 17.53125 -14.453125 L 17.53125 -2.75 C 17.53125 -2.28125 17.582031 -1.929688 17.6875 -1.703125 C 17.789062 -1.484375 17.972656 -1.328125 18.234375 -1.234375 C 18.492188 -1.148438 18.90625 -1.082031 19.46875 -1.03125 L 19.46875 0 L 11.234375 0 Z M 11.234375 -1.03125 "/></g></g><g style="fill:#000000;fill-opacity:1;"><g transform="translate(131.057847, 325.412146)"><path style="stroke:none" d="M 9.703125 -17.578125 C 11.554688 -17.578125 13.148438 -17.207031 14.484375 -16.46875 C 15.816406 -15.726562 16.835938 -14.679688 17.546875 -13.328125 C 18.265625 -11.984375 18.625 -10.410156 18.625 -8.609375 C 18.625 -6.804688 18.265625 -5.226562 17.546875 -3.875 C 16.835938 -2.519531 15.816406 -1.472656 14.484375 -0.734375 C 13.148438 0.00390625 11.554688 0.375 9.703125 0.375 C 7.859375 0.375 6.265625 0.00390625 4.921875 -0.734375 C 3.578125 -1.472656 2.546875 -2.519531 1.828125 -3.875 C 1.117188 -5.226562 0.765625 -6.804688 0.765625 -8.609375 C 0.765625 -10.410156 1.117188 -11.984375 1.828125 -13.328125 C 2.546875 -14.679688 3.578125 -15.726562 4.921875 -16.46875 C 6.265625 -17.207031 7.859375 -17.578125 9.703125 -17.578125 Z M 9.703125 -1.234375 C 11.273438 -1.234375 12.375 -1.875 13 -3.15625 C 13.632812 -4.445312 13.953125 -6.265625 13.953125 -8.609375 C 13.953125 -10.941406 13.632812 -12.753906 13 -14.046875 C 12.375 -15.347656 11.273438 -16 9.703125 -16 C 8.128906 -16 7.023438 -15.347656 6.390625 -14.046875 C 5.753906 -12.753906 5.4375 -10.941406 5.4375 -8.609375 C 5.4375 -6.265625 5.753906 -4.445312 6.390625 -3.15625 C 7.023438 -1.875 8.128906 -1.234375 9.703125 -1.234375 Z M 9.703125 -1.234375 "/></g></g><g style="fill:#000000;fill-opacity:1;"><g transform="translate(159.813975, 325.412146)"><path style="stroke:none" d="M 6.640625 -5.15625 C 6.640625 -3.894531 7.019531 -2.953125 7.78125 -2.328125 C 8.539062 -1.710938 9.488281 -1.40625 10.625 -1.40625 C 11.894531 -1.40625 12.890625 -1.757812 13.609375 -2.46875 C 14.335938 -3.1875 14.703125 -4.222656 14.703125 -5.578125 L 14.703125 -14.453125 C 14.703125 -14.929688 14.644531 -15.285156 14.53125 -15.515625 C 14.425781 -15.742188 14.242188 -15.894531 13.984375 -15.96875 C 13.734375 -16.050781 13.320312 -16.117188 12.75 -16.171875 L 12.75 -17.203125 L 18.53125 -17.203125 L 18.53125 -16.171875 C 17.957031 -16.117188 17.539062 -16.050781 17.28125 -15.96875 C 17.03125 -15.894531 16.851562 -15.742188 16.75 -15.515625 C 16.644531 -15.285156 16.59375 -14.929688 16.59375 -14.453125 L 16.59375 -5.578125 C 16.59375 -3.628906 15.984375 -2.148438 14.765625 -1.140625 C 13.554688 -0.128906 11.882812 0.375 9.75 0.375 C 7.34375 0.375 5.492188 -0.128906 4.203125 -1.140625 C 2.921875 -2.160156 2.28125 -3.640625 2.28125 -5.578125 L 2.28125 -14.453125 C 2.28125 -14.929688 2.226562 -15.285156 2.125 -15.515625 C 2.019531 -15.742188 1.835938 -15.894531 1.578125 -15.96875 C 1.328125 -16.050781 0.914062 -16.117188 0.34375 -16.171875 L 0.34375 -17.203125 L 8.578125 -17.203125 L 8.578125 -16.171875 C 8.003906 -16.117188 7.585938 -16.050781 7.328125 -15.96875 C 7.078125 -15.894531 6.898438 -15.742188 6.796875 -15.515625 C 6.691406 -15.285156 6.640625 -14.929688 6.640625 -14.453125 Z M 6.640625 -5.15625 "/></g></g><g style="fill:#000000;fill-opacity:1;"><g transform="translate(188.004903, 325.412146)"><path style="stroke:none" d="M 9.640625 -10.90625 C 10.910156 -10.550781 11.953125 -10.191406 12.765625 -9.828125 C 13.578125 -9.472656 14.269531 -8.9375 14.84375 -8.21875 C 15.414062 -7.507812 15.703125 -6.570312 15.703125 -5.40625 C 15.703125 -4.257812 15.378906 -3.25 14.734375 -2.375 C 14.097656 -1.5 13.226562 -0.820312 12.125 -0.34375 C 11.019531 0.132812 9.789062 0.375 8.4375 0.375 C 7.46875 0.375 6.554688 0.269531 5.703125 0.0625 C 4.847656 -0.144531 4.109375 -0.425781 3.484375 -0.78125 L 3.125 0 L 1.9375 0 L 0.609375 -5.546875 L 1.578125 -5.828125 C 2.210938 -4.484375 3.113281 -3.375 4.28125 -2.5 C 5.457031 -1.632812 6.765625 -1.203125 8.203125 -1.203125 C 9.140625 -1.203125 9.921875 -1.441406 10.546875 -1.921875 C 11.179688 -2.410156 11.5 -3.007812 11.5 -3.71875 C 11.5 -4.320312 11.3125 -4.816406 10.9375 -5.203125 C 10.570312 -5.597656 10.109375 -5.914062 9.546875 -6.15625 C 8.984375 -6.40625 8.1875 -6.6875 7.15625 -7 C 5.925781 -7.375 4.910156 -7.75 4.109375 -8.125 C 3.316406 -8.507812 2.640625 -9.054688 2.078125 -9.765625 C 1.523438 -10.484375 1.25 -11.40625 1.25 -12.53125 C 1.25 -13.582031 1.535156 -14.488281 2.109375 -15.25 C 2.679688 -16.007812 3.457031 -16.585938 4.4375 -16.984375 C 5.414062 -17.378906 6.476562 -17.578125 7.625 -17.578125 C 9.488281 -17.578125 11.019531 -17.207031 12.21875 -16.46875 L 12.5625 -17.203125 L 13.734375 -17.203125 L 14.9375 -12.234375 L 14.03125 -12 C 13.457031 -13.238281 12.644531 -14.210938 11.59375 -14.921875 C 10.550781 -15.640625 9.359375 -16 8.015625 -16 C 7.160156 -16 6.488281 -15.796875 6 -15.390625 C 5.519531 -14.992188 5.28125 -14.46875 5.28125 -13.8125 C 5.28125 -13.289062 5.457031 -12.859375 5.8125 -12.515625 C 6.164062 -12.179688 6.628906 -11.90625 7.203125 -11.6875 C 7.773438 -11.46875 8.585938 -11.207031 9.640625 -10.90625 Z M 9.640625 -10.90625 "/></g></g><g style="fill:#000000;fill-opacity:1;"><g transform="translate(213.8367, 325.412146)"><path style="stroke:none" d="M 12.65625 0 L 4.421875 0 L 4.421875 -1.03125 C 4.984375 -1.082031 5.394531 -1.148438 5.65625 -1.234375 C 5.914062 -1.328125 6.097656 -1.484375 6.203125 -1.703125 C 6.304688 -1.929688 6.359375 -2.28125 6.359375 -2.75 L 6.359375 -14.796875 C 6.359375 -15.023438 6.289062 -15.203125 6.15625 -15.328125 C 6.03125 -15.460938 5.851562 -15.53125 5.625 -15.53125 C 3.875 -15.53125 2.367188 -14.472656 1.109375 -12.359375 L 0.21875 -12.75 L 1.796875 -17.75 L 2.84375 -17.75 C 2.976562 -17.382812 3.25 -17.203125 3.65625 -17.203125 L 13.390625 -17.203125 C 13.816406 -17.203125 14.097656 -17.382812 14.234375 -17.75 L 15.265625 -17.75 L 16.84375 -12.75 L 15.953125 -12.359375 C 15.316406 -13.421875 14.613281 -14.210938 13.84375 -14.734375 C 13.070312 -15.265625 12.273438 -15.53125 11.453125 -15.53125 C 11.222656 -15.53125 11.039062 -15.460938 10.90625 -15.328125 C 10.78125 -15.203125 10.71875 -15.023438 10.71875 -14.796875 L 10.71875 -2.75 C 10.71875 -2.28125 10.769531 -1.929688 10.875 -1.703125 C 10.976562 -1.484375 11.160156 -1.328125 11.421875 -1.234375 C 11.691406 -1.148438 12.101562 -1.082031 12.65625 -1.03125 Z M 12.65625 0 "/></g></g><g style="fill:#000000;fill-opacity:1;"><g transform="translate(240.233709, 325.412146)"><path style="stroke:none" d=""/></g></g><g style="fill:#000000;fill-opacity:1;"><g transform="translate(255.375717, 325.412146)"><path style="stroke:none" d="M 0.484375 -1.03125 C 1.046875 -1.082031 1.457031 -1.148438 1.71875 -1.234375 C 1.976562 -1.328125 2.160156 -1.484375 2.265625 -1.703125 C 2.378906 -1.929688 2.4375 -2.28125 2.4375 -2.75 L 2.4375 -14.453125 C 2.4375 -14.929688 2.378906 -15.285156 2.265625 -15.515625 C 2.160156 -15.742188 1.984375 -15.894531 1.734375 -15.96875 C 1.484375 -16.050781 1.066406 -16.117188 0.484375 -16.171875 L 0.484375 -17.203125 L 7.15625 -17.203125 L 13.6875 -6.984375 L 13.6875 -14.453125 C 13.6875 -14.941406 13.632812 -15.296875 13.53125 -15.515625 C 13.4375 -15.742188 13.257812 -15.894531 13 -15.96875 C 12.738281 -16.050781 12.320312 -16.117188 11.75 -16.171875 L 11.75 -17.203125 L 17.5 -17.203125 L 17.5 -16.171875 C 16.925781 -16.117188 16.507812 -16.050781 16.25 -15.96875 C 16 -15.894531 15.820312 -15.742188 15.71875 -15.515625 C 15.625 -15.296875 15.578125 -14.941406 15.578125 -14.453125 L 15.578125 0 L 12.953125 0 L 4.328125 -13.546875 L 4.328125 -2.75 C 4.328125 -2.28125 4.378906 -1.929688 4.484375 -1.703125 C 4.585938 -1.484375 4.773438 -1.328125 5.046875 -1.234375 C 5.316406 -1.148438 5.734375 -1.082031 6.296875 -1.03125 L 6.296875 0 L 0.484375 0 Z M 0.484375 -1.03125 "/></g></g><g style="fill:#000000;fill-opacity:1;"><g transform="translate(97.483745, 352.412144)"><path style="stroke:none" d="M 8.265625 -1.671875 C 9.367188 -1.671875 10.507812 -2.03125 11.6875 -2.75 C 12.875 -3.46875 13.894531 -4.382812 14.75 -5.5 L 15.609375 -4.984375 L 13.21875 0 L 0.484375 0 L 0.484375 -1.03125 C 1.046875 -1.082031 1.457031 -1.148438 1.71875 -1.234375 C 1.976562 -1.328125 2.160156 -1.484375 2.265625 -1.703125 C 2.378906 -1.929688 2.4375 -2.28125 2.4375 -2.75 L 2.4375 -14.453125 C 2.4375 -14.929688 2.378906 -15.285156 2.265625 -15.515625 C 2.160156 -15.742188 1.984375 -15.894531 1.734375 -15.96875 C 1.484375 -16.050781 1.066406 -16.117188 0.484375 -16.171875 L 0.484375 -17.203125 L 8.71875 -17.203125 L 8.71875 -16.171875 C 8.144531 -16.117188 7.734375 -16.050781 7.484375 -15.96875 C 7.234375 -15.894531 7.050781 -15.742188 6.9375 -15.515625 C 6.832031 -15.285156 6.78125 -14.929688 6.78125 -14.453125 L 6.78125 -2.40625 C 6.78125 -2.195312 6.847656 -2.019531 6.984375 -1.875 C 7.128906 -1.738281 7.304688 -1.671875 7.515625 -1.671875 Z M 8.265625 -1.671875 "/></g></g><g style="fill:#000000;fill-opacity:1;"><g transform="translate(122.504591, 352.412144)"><path style="stroke:none" d="M 15.953125 -2.625 C 16.179688 -2.070312 16.425781 -1.679688 16.6875 -1.453125 C 16.945312 -1.234375 17.304688 -1.09375 17.765625 -1.03125 L 17.765625 0 L 9.953125 0 L 9.953125 -1.03125 C 10.523438 -1.082031 10.929688 -1.164062 11.171875 -1.28125 C 11.421875 -1.40625 11.546875 -1.601562 11.546875 -1.875 C 11.546875 -2.050781 11.488281 -2.28125 11.375 -2.5625 L 10.515625 -4.765625 L 4.375 -4.765625 L 3.515625 -2.5625 C 3.421875 -2.3125 3.375 -2.101562 3.375 -1.9375 C 3.375 -1.644531 3.507812 -1.429688 3.78125 -1.296875 C 4.0625 -1.171875 4.515625 -1.082031 5.140625 -1.03125 L 5.140625 0 L -0.203125 0 L -0.203125 -1.03125 C 0.304688 -1.09375 0.703125 -1.226562 0.984375 -1.4375 C 1.265625 -1.65625 1.507812 -2.046875 1.71875 -2.609375 L 7.34375 -17.203125 L 10.328125 -17.203125 Z M 7.421875 -12.703125 L 5.015625 -6.4375 L 9.859375 -6.4375 Z M 7.421875 -12.703125 "/></g></g><g style="fill:#000000;fill-opacity:1;"><g transform="translate(149.442231, 352.412144)"><path style="stroke:none" d="M 0.484375 -1.03125 C 1.046875 -1.082031 1.457031 -1.148438 1.71875 -1.234375 C 1.976562 -1.328125 2.160156 -1.484375 2.265625 -1.703125 C 2.378906 -1.929688 2.4375 -2.28125 2.4375 -2.75 L 2.4375 -14.453125 C 2.4375 -14.929688 2.378906 -15.285156 2.265625 -15.515625 C 2.160156 -15.742188 1.984375 -15.894531 1.734375 -15.96875 C 1.484375 -16.050781 1.066406 -16.117188 0.484375 -16.171875 L 0.484375 -17.203125 L 7.15625 -17.203125 L 13.6875 -6.984375 L 13.6875 -14.453125 C 13.6875 -14.941406 13.632812 -15.296875 13.53125 -15.515625 C 13.4375 -15.742188 13.257812 -15.894531 13 -15.96875 C 12.738281 -16.050781 12.320312 -16.117188 11.75 -16.171875 L 11.75 -17.203125 L 17.5 -17.203125 L 17.5 -16.171875 C 16.925781 -16.117188 16.507812 -16.050781 16.25 -15.96875 C 16 -15.894531 15.820312 -15.742188 15.71875 -15.515625 C 15.625 -15.296875 15.578125 -14.941406 15.578125 -14.453125 L 15.578125 0 L 12.953125 0 L 4.328125 -13.546875 L 4.328125 -2.75 C 4.328125 -2.28125 4.378906 -1.929688 4.484375 -1.703125 C 4.585938 -1.484375 4.773438 -1.328125 5.046875 -1.234375 C 5.316406 -1.148438 5.734375 -1.082031 6.296875 -1.03125 L 6.296875 0 L 0.484375 0 Z M 0.484375 -1.03125 "/></g></g><g style="fill:#000000;fill-opacity:1;"><g transform="translate(176.625609, 352.412144)"><path style="stroke:none" d="M 0.484375 0 L 0.484375 -1.03125 C 1.046875 -1.082031 1.457031 -1.148438 1.71875 -1.234375 C 1.976562 -1.328125 2.160156 -1.484375 2.265625 -1.703125 C 2.378906 -1.929688 2.4375 -2.28125 2.4375 -2.75 L 2.4375 -14.453125 C 2.4375 -14.929688 2.378906 -15.285156 2.265625 -15.515625 C 2.160156 -15.742188 1.984375 -15.894531 1.734375 -15.96875 C 1.484375 -16.050781 1.066406 -16.117188 0.484375 -16.171875 L 0.484375 -17.203125 L 8.703125 -17.203125 C 11.785156 -17.203125 14.140625 -16.453125 15.765625 -14.953125 C 17.398438 -13.453125 18.21875 -11.335938 18.21875 -8.609375 C 18.21875 -5.878906 17.390625 -3.757812 15.734375 -2.25 C 14.085938 -0.75 11.726562 0 8.65625 0 Z M 7.515625 -15.53125 C 7.304688 -15.53125 7.128906 -15.460938 6.984375 -15.328125 C 6.847656 -15.203125 6.78125 -15.023438 6.78125 -14.796875 L 6.78125 -2.40625 C 6.78125 -2.195312 6.847656 -2.019531 6.984375 -1.875 C 7.128906 -1.738281 7.304688 -1.671875 7.515625 -1.671875 L 8.65625 -1.671875 C 10.257812 -1.671875 11.472656 -2.210938 12.296875 -3.296875 C 13.128906 -4.390625 13.546875 -6.160156 13.546875 -8.609375 C 13.546875 -11.046875 13.132812 -12.804688 12.3125 -13.890625 C 11.488281 -14.984375 10.285156 -15.53125 8.703125 -15.53125 Z M 7.515625 -15.53125 "/></g></g><g style="fill:#000000;fill-opacity:1;"><g transform="translate(204.9394, 352.412144)"><path style="stroke:none" d="M 13.984375 -1.328125 C 13.441406 -0.816406 12.773438 -0.40625 11.984375 -0.09375 C 11.203125 0.21875 10.335938 0.375 9.390625 0.375 C 7.671875 0.375 6.160156 0.00390625 4.859375 -0.734375 C 3.554688 -1.472656 2.546875 -2.519531 1.828125 -3.875 C 1.117188 -5.238281 0.765625 -6.816406 0.765625 -8.609375 C 0.765625 -10.390625 1.117188 -11.957031 1.828125 -13.3125 C 2.546875 -14.675781 3.554688 -15.726562 4.859375 -16.46875 C 6.160156 -17.207031 7.671875 -17.578125 9.390625 -17.578125 C 11.140625 -17.578125 12.546875 -17.207031 13.609375 -16.46875 L 13.9375 -17.203125 L 15.140625 -17.203125 L 16.3125 -12.234375 L 15.3125 -11.9375 C 14.707031 -13.21875 13.925781 -14.210938 12.96875 -14.921875 C 12.019531 -15.640625 10.988281 -16 9.875 -16 C 8.269531 -16 7.128906 -15.347656 6.453125 -14.046875 C 5.773438 -12.742188 5.4375 -10.929688 5.4375 -8.609375 C 5.4375 -6.304688 5.753906 -4.5 6.390625 -3.1875 C 7.023438 -1.882812 8.066406 -1.234375 9.515625 -1.234375 C 10.097656 -1.234375 10.628906 -1.335938 11.109375 -1.546875 C 11.597656 -1.765625 11.941406 -2.007812 12.140625 -2.28125 L 12.140625 -5.328125 C 12.140625 -5.804688 12.085938 -6.15625 11.984375 -6.375 C 11.878906 -6.59375 11.695312 -6.742188 11.4375 -6.828125 C 11.1875 -6.910156 10.773438 -6.976562 10.203125 -7.03125 L 10.203125 -8.09375 L 18.15625 -8.09375 L 18.15625 -7.03125 C 17.6875 -6.976562 17.335938 -6.910156 17.109375 -6.828125 C 16.890625 -6.742188 16.726562 -6.59375 16.625 -6.375 C 16.53125 -6.15625 16.484375 -5.804688 16.484375 -5.328125 L 16.484375 0 L 15.0625 0 Z M 13.984375 -1.328125 "/></g></g><g style="fill:#000000;fill-opacity:1;"><g transform="translate(232.687991, 352.412144)"><path style="stroke:none" d="M 6.640625 -5.15625 C 6.640625 -3.894531 7.019531 -2.953125 7.78125 -2.328125 C 8.539062 -1.710938 9.488281 -1.40625 10.625 -1.40625 C 11.894531 -1.40625 12.890625 -1.757812 13.609375 -2.46875 C 14.335938 -3.1875 14.703125 -4.222656 14.703125 -5.578125 L 14.703125 -14.453125 C 14.703125 -14.929688 14.644531 -15.285156 14.53125 -15.515625 C 14.425781 -15.742188 14.242188 -15.894531 13.984375 -15.96875 C 13.734375 -16.050781 13.320312 -16.117188 12.75 -16.171875 L 12.75 -17.203125 L 18.53125 -17.203125 L 18.53125 -16.171875 C 17.957031 -16.117188 17.539062 -16.050781 17.28125 -15.96875 C 17.03125 -15.894531 16.851562 -15.742188 16.75 -15.515625 C 16.644531 -15.285156 16.59375 -14.929688 16.59375 -14.453125 L 16.59375 -5.578125 C 16.59375 -3.628906 15.984375 -2.148438 14.765625 -1.140625 C 13.554688 -0.128906 11.882812 0.375 9.75 0.375 C 7.34375 0.375 5.492188 -0.128906 4.203125 -1.140625 C 2.921875 -2.160156 2.28125 -3.640625 2.28125 -5.578125 L 2.28125 -14.453125 C 2.28125 -14.929688 2.226562 -15.285156 2.125 -15.515625 C 2.019531 -15.742188 1.835938 -15.894531 1.578125 -15.96875 C 1.328125 -16.050781 0.914062 -16.117188 0.34375 -16.171875 L 0.34375 -17.203125 L 8.578125 -17.203125 L 8.578125 -16.171875 C 8.003906 -16.117188 7.585938 -16.050781 7.328125 -15.96875 C 7.078125 -15.894531 6.898438 -15.742188 6.796875 -15.515625 C 6.691406 -15.285156 6.640625 -14.929688 6.640625 -14.453125 Z M 6.640625 -5.15625 "/></g></g><g style="fill:#000000;fill-opacity:1;"><g transform="translate(260.878918, 352.412144)"><path style="stroke:none" d="M 6.171875 -6.90625 L 1.75 -14.453125 C 1.351562 -15.117188 1.039062 -15.554688 0.8125 -15.765625 C 0.59375 -15.972656 0.253906 -16.109375 -0.203125 -16.171875 L -0.203125 -17.203125 L 7.765625 -17.203125 L 7.765625 -16.171875 C 6.828125 -16.109375 6.359375 -15.796875 6.359375 -15.234375 C 6.359375 -14.972656 6.472656 -14.640625 6.703125 -14.234375 L 9.65625 -9.171875 L 12.6875 -14.28125 C 12.925781 -14.707031 13.046875 -15.039062 13.046875 -15.28125 C 13.046875 -15.789062 12.5625 -16.085938 11.59375 -16.171875 L 11.59375 -17.203125 L 16.8125 -17.203125 L 16.8125 -16.171875 C 16.363281 -16.109375 16.03125 -15.972656 15.8125 -15.765625 C 15.59375 -15.554688 15.285156 -15.117188 14.890625 -14.453125 L 10.515625 -7.046875 L 10.515625 -2.75 C 10.515625 -2.28125 10.566406 -1.929688 10.671875 -1.703125 C 10.785156 -1.484375 10.972656 -1.328125 11.234375 -1.234375 C 11.492188 -1.148438 11.90625 -1.082031 12.46875 -1.03125 L 12.46875 0 L 4.234375 0 L 4.234375 -1.03125 C 4.785156 -1.082031 5.191406 -1.148438 5.453125 -1.234375 C 5.710938 -1.328125 5.894531 -1.484375 6 -1.703125 C 6.113281 -1.929688 6.171875 -2.28125 6.171875 -2.75 Z M 6.171875 -6.90625 "/></g></g><g clip-rule="nonzero" clip-path="url(#5d1738dcdd)"><g clip-rule="nonzero" clip-path="url(#9e2dd0dc7c)"><g clip-rule="nonzero" clip-path="url(#c73323a93a)"><path style=" stroke:none;fill-rule:nonzero;fill:#22794c;fill-opacity:1;" d="M 247.417969 318.144531 C 247.425781 318.21875 247.40625 318.289062 247.359375 318.347656 C 247.3125 318.40625 247.25 318.441406 247.175781 318.453125 C 247.097656 318.460938 247.03125 318.441406 246.96875 318.394531 C 246.910156 318.347656 246.875 318.285156 246.863281 318.207031 C 246.855469 318.132812 246.875 318.0625 246.921875 318.003906 C 246.96875 317.941406 247.03125 317.90625 247.109375 317.898438 C 247.183594 317.890625 247.253906 317.910156 247.3125 317.957031 C 247.375 318.003906 247.410156 318.066406 247.417969 318.144531 Z M 247.417969 318.144531 "/></g></g></g><g clip-rule="nonzero" clip-path="url(#0e49a94730)"><g clip-rule="nonzero" clip-path="url(#5b89948458)"><g clip-rule="nonzero" clip-path="url(#e1c0ed4ded)"><path style=" stroke:none;fill-rule:nonzero;fill:#22794c;fill-opacity:1;" d="M 251.472656 316.976562 C 251.445312 316.867188 251.402344 316.761719 251.335938 316.671875 C 251.183594 316.4375 251.015625 316.203125 250.847656 315.972656 L 250.761719 315.855469 C 250.710938 315.777344 250.648438 315.699219 250.582031 315.625 C 250.566406 315.613281 250.566406 315.597656 250.558594 315.558594 C 250.5 315.046875 250.4375 314.535156 250.378906 314.023438 L 250.328125 313.59375 C 250.285156 313.222656 250.15625 312.984375 249.660156 313.042969 C 249.644531 313.042969 249.632812 313.046875 249.632812 313.046875 L 249.574219 313.023438 C 249.386719 312.976562 249.269531 312.949219 249.191406 312.859375 C 249.109375 312.785156 249.023438 312.738281 248.949219 312.707031 C 248.875 312.671875 248.769531 312.628906 248.660156 312.640625 C 248.5625 312.652344 248.453125 312.667969 248.355469 312.679688 C 248.203125 312.695312 248.050781 312.714844 247.898438 312.71875 C 247.8125 312.714844 247.746094 312.734375 247.691406 312.757812 C 247.679688 312.757812 247.664062 312.761719 247.652344 312.761719 C 247.398438 312.75 247.167969 312.820312 246.960938 312.96875 C 246.871094 313.035156 246.855469 313.023438 246.824219 313.011719 C 246.734375 312.96875 246.648438 312.949219 246.589844 312.929688 L 246.5625 312.917969 C 246.503906 312.898438 246.386719 312.867188 246.269531 312.925781 C 246.148438 312.980469 246.027344 313.023438 245.910156 313.09375 C 245.820312 313.035156 245.714844 312.976562 245.609375 312.917969 C 245.492188 312.863281 245.363281 312.863281 245.28125 312.875 C 245.226562 312.878906 245.171875 312.898438 245.132812 312.917969 C 245.117188 312.921875 245.09375 312.9375 245.078125 312.9375 C 245.011719 312.949219 244.9375 312.941406 244.867188 312.9375 C 244.71875 312.742188 244.511719 312.65625 244.277344 312.683594 L 244.222656 312.691406 C 244.125 312.703125 244.015625 312.714844 243.917969 312.726562 C 243.671875 312.769531 243.457031 312.726562 243.273438 312.59375 C 243.164062 312.519531 243.066406 312.503906 242.980469 312.5 C 242.96875 312.503906 242.953125 312.488281 242.925781 312.492188 C 242.894531 312.484375 242.851562 312.488281 242.808594 312.480469 C 242.765625 312.46875 242.738281 312.472656 242.710938 312.460938 C 242.695312 312.464844 242.664062 312.441406 242.636719 312.429688 C 242.621094 312.417969 242.589844 312.40625 242.5625 312.394531 C 242.472656 311.636719 242.226562 309.5625 242.226562 309.5625 C 242.179688 309.175781 241.980469 309.003906 241.605469 309.046875 C 241.605469 309.046875 238.09375 309.460938 237.789062 309.5 C 237.5 309.53125 237.316406 309.765625 237.351562 310.070312 C 237.355469 310.082031 237.359375 310.109375 238.164062 316.925781 C 234.195312 317.394531 234.183594 317.394531 234.167969 317.398438 C 233.9375 317.4375 233.777344 317.625 233.75 317.882812 C 233.746094 317.953125 233.738281 318.023438 233.71875 318.09375 C 233.675781 318.308594 233.710938 318.503906 233.828125 318.65625 C 233.925781 318.785156 234.089844 318.863281 234.273438 318.871094 C 234.273438 318.871094 234.289062 318.882812 234.289062 318.882812 C 234.417969 319.019531 234.546875 319.175781 234.703125 319.296875 C 234.824219 319.394531 234.945312 319.464844 235.082031 319.53125 C 235.125 319.554688 235.15625 319.578125 235.199219 319.601562 C 235.246094 319.636719 235.304688 319.660156 235.367188 319.695312 C 235.394531 319.703125 235.410156 319.714844 235.441406 319.726562 L 235.457031 319.738281 C 235.675781 319.9375 235.917969 320.078125 236.203125 320.140625 C 236.21875 320.152344 236.222656 320.179688 236.222656 320.195312 C 236.238281 320.304688 236.265625 320.429688 236.335938 320.53125 C 236.382812 320.597656 236.417969 320.664062 236.46875 320.726562 C 236.503906 320.777344 236.535156 320.816406 236.570312 320.867188 C 236.539062 321.210938 236.632812 321.394531 236.890625 321.558594 C 236.980469 321.84375 237.183594 322.015625 237.464844 322.039062 C 237.464844 322.039062 237.480469 322.050781 237.496094 322.050781 C 237.679688 322.179688 237.902344 322.308594 238.183594 322.304688 C 238.199219 322.300781 238.199219 322.316406 238.214844 322.328125 C 238.410156 322.445312 238.648438 322.558594 238.941406 322.535156 C 238.996094 322.53125 239.066406 322.535156 239.136719 322.542969 C 239.164062 322.539062 239.195312 322.550781 239.222656 322.546875 C 239.460938 322.558594 239.875 322.273438 239.945312 322.027344 C 239.964844 321.96875 239.972656 321.910156 239.964844 321.839844 C 239.960938 321.800781 239.953125 321.746094 239.945312 321.6875 C 240.023438 321.609375 240.105469 321.472656 240.089844 321.25 C 240.160156 321.230469 240.226562 321.195312 240.289062 321.128906 C 240.289062 321.128906 240.300781 321.128906 240.316406 321.128906 C 240.371094 321.132812 240.425781 321.128906 240.484375 321.136719 C 240.625 321.144531 240.78125 321.15625 240.933594 321.152344 C 241.101562 321.371094 241.339844 321.511719 241.644531 321.574219 C 241.703125 321.59375 241.785156 321.695312 241.78125 321.78125 C 241.777344 321.867188 241.761719 322.117188 241.953125 322.292969 C 242.09375 322.429688 242.238281 322.566406 242.378906 322.691406 C 242.335938 322.933594 242.460938 323.15625 242.683594 323.269531 C 242.746094 323.304688 242.816406 323.324219 242.875 323.332031 C 242.851562 323.617188 243.003906 323.851562 243.296875 323.957031 C 243.414062 323.996094 243.515625 324.027344 243.628906 324.042969 C 243.554688 324.332031 243.707031 324.550781 243.773438 324.640625 C 243.839844 324.734375 243.890625 324.824219 243.945312 324.917969 C 243.980469 324.96875 243.996094 325.007812 244.019531 325.0625 C 244.070312 325.152344 244.109375 325.234375 244.175781 325.324219 C 244.226562 325.402344 244.304688 325.460938 244.351562 325.511719 C 244.367188 325.523438 244.382812 325.539062 244.398438 325.550781 C 244.460938 325.722656 244.605469 325.890625 244.917969 325.921875 C 244.933594 325.921875 244.976562 325.945312 245.007812 325.96875 C 245.035156 325.980469 245.761719 326.285156 245.863281 326.316406 C 245.992188 326.355469 246.128906 326.324219 246.226562 326.316406 C 246.296875 326.304688 246.363281 326.296875 246.433594 326.277344 C 246.554688 326.246094 246.570312 326.261719 246.597656 326.269531 C 246.675781 326.332031 246.761719 326.347656 246.859375 326.351562 C 246.902344 326.347656 247.320312 326.3125 247.386719 326.289062 C 247.507812 326.261719 247.613281 326.191406 247.671875 326.085938 C 247.742188 325.980469 247.753906 325.851562 247.726562 325.730469 L 247.726562 325.714844 C 247.671875 325.511719 247.617188 325.265625 247.453125 325.0625 C 247.433594 325.035156 247.402344 325.011719 247.398438 324.984375 C 247.363281 324.777344 247.351562 324.570312 247.328125 324.375 C 247.304688 324.054688 247.261719 323.808594 247.191406 323.578125 C 247.148438 323.457031 247.132812 323.320312 247.101562 323.167969 C 247.351562 323.027344 247.539062 322.835938 247.714844 322.664062 C 247.726562 322.660156 247.742188 322.644531 247.765625 322.628906 C 247.804688 322.609375 247.847656 322.589844 247.882812 322.558594 L 247.910156 322.542969 C 247.988281 322.488281 248.078125 322.421875 248.132812 322.304688 C 248.179688 322.203125 248.210938 322.113281 248.238281 322 C 248.320312 321.988281 248.402344 321.976562 248.488281 321.96875 C 248.585938 321.972656 248.765625 321.964844 248.929688 321.804688 C 248.980469 321.757812 249.03125 321.707031 249.082031 321.660156 C 249.15625 321.59375 249.234375 321.515625 249.308594 321.4375 L 249.355469 321.375 C 249.457031 321.265625 249.582031 321.152344 249.648438 320.992188 C 249.691406 320.902344 249.742188 320.839844 249.828125 320.757812 C 249.855469 320.726562 249.878906 320.710938 249.90625 320.679688 C 249.96875 320.617188 250 320.542969 250.023438 320.496094 C 250.257812 320.457031 250.484375 320.359375 250.730469 320.191406 C 250.78125 320.15625 250.808594 320.136719 250.835938 320.136719 C 251.226562 320.019531 251.40625 319.746094 251.34375 319.332031 C 251.328125 319.195312 251.335938 319.152344 251.359375 319.105469 C 251.5 318.878906 251.484375 318.644531 251.464844 318.476562 C 251.453125 318.367188 251.425781 318.257812 251.445312 318.171875 C 251.550781 317.765625 251.558594 317.359375 251.472656 316.976562 Z M 248 318.691406 C 248 318.691406 247.355469 319.972656 247.355469 319.972656 L 246.394531 318.839844 C 246.277344 318.683594 246.199219 318.511719 246.175781 318.316406 C 246.113281 317.765625 246.488281 317.273438 247.027344 317.207031 C 247.609375 317.140625 248.039062 317.578125 248.113281 318.089844 C 248.136719 318.28125 248.105469 318.496094 248 318.691406 Z M 248 318.691406 "/></g></g></g><g clip-rule="nonzero" clip-path="url(#53d553377d)"><path style=" stroke:none;fill-rule:nonzero;fill:#000000;fill-opacity:1;" d="M 274.78125 330.816406 C 276.792969 330.816406 276.792969 327.808594 274.78125 327.808594 L 268.664062 327.808594 C 266.652344 327.808594 266.652344 330.816406 268.664062 330.816406 Z M 259.496094 330.816406 C 261.507812 330.816406 261.507812 327.808594 259.496094 327.808594 L 253.378906 327.808594 C 251.367188 327.808594 251.367188 330.816406 253.378906 330.816406 Z M 244.207031 330.816406 C 246.21875 330.816406 246.21875 327.808594 244.207031 327.808594 L 238.09375 327.808594 C 236.082031 327.808594 236.082031 330.816406 238.09375 330.816406 Z M 228.914062 330.816406 C 230.929688 330.816406 230.929688 327.808594 228.917969 327.808594 L 222.804688 327.808594 C 220.792969 327.808594 220.792969 330.816406 222.804688 330.816406 Z M 213.632812 330.816406 C 215.644531 330.816406 215.644531 327.808594 213.632812 327.808594 L 207.519531 327.808594 C 205.507812 327.808594 205.507812 330.816406 207.519531 330.816406 Z M 198.347656 330.816406 C 200.359375 330.816406 200.359375 327.808594 198.347656 327.808594 L 192.230469 327.808594 C 190.21875 327.808594 190.21875 330.816406 192.230469 330.816406 Z M 183.058594 330.816406 C 185.070312 330.816406 185.070312 327.808594 183.058594 327.808594 L 176.945312 327.808594 C 174.929688 327.808594 174.929688 330.816406 176.945312 330.816406 Z M 167.769531 330.816406 C 169.78125 330.816406 169.78125 327.808594 167.769531 327.808594 L 161.652344 327.808594 C 159.640625 327.808594 159.640625 330.816406 161.652344 330.816406 Z M 152.480469 330.816406 C 154.492188 330.816406 154.492188 327.808594 152.480469 327.808594 L 146.371094 327.808594 C 144.355469 327.808594 144.355469 330.816406 146.371094 330.816406 Z M 137.191406 330.816406 C 139.207031 330.816406 139.207031 327.808594 137.191406 327.808594 L 131.078125 327.808594 C 129.066406 327.808594 129.066406 330.816406 131.078125 330.816406 Z M 121.90625 330.816406 C 123.917969 330.816406 123.917969 327.808594 121.90625 327.808594 L 115.792969 327.808594 C 113.78125 327.808594 113.78125 330.816406 115.792969 330.816406 Z M 106.621094 330.816406 C 108.632812 330.816406 108.632812 327.808594 106.621094 327.808594 L 100.507812 327.808594 C 98.496094 327.808594 98.496094 330.816406 100.507812 330.816406 Z M 106.621094 330.816406 "/></g><g clip-rule="nonzero" clip-path="url(#aa325375af)"><path style="fill:none;stroke-width:6;stroke-linecap:butt;stroke-linejoin:miter;stroke:#000000;stroke-opacity:1;stroke-miterlimit:4;" d="M -0.00146193 0.000453139 L -0.00146193 4.062953 L 250.607949 4.062953 L 250.607949 0.000453139 L -0.00146193 0.000453139 " transform="matrix(0.751169,0,0,0.738462,93.516723,327.804353)"/></g></g></svg>